PathFileType	4	(X/Y/Z)	C:/Users/beibeiliu/ov580/test_trc\sequence.35_training_dense_left.trc
DataRate	CameraRate	NumFrames	NumMarkers	Units	OrigDataRate	OrigDataStartFrame	OrigNumFrames
120	120	10	19	mm	120	1	283
Frame#	Time	ThumbCMC			ThumbMCP			ThumbIP			ThumbTip			IndexMCP			IndexPIP			IndexTip			MiddleMCP			MiddlePIP			MiddleTip			RingMCP			RingPIP			RingTip			PinkyMCP			PinkyPIP			PinkyTip			BackHand1			BackHand2			BackHand3	
		X0	Y0	Z0	X1	Y1	Z1	X2	Y2	Z2	X3	Y3	Z3	X4	Y4	Z4	X5	Y5	Z5	X6	Y6	Z6	X7	Y7	Z7	X8	Y8	Z8	X9	Y9	Z9	X10	Y10	Z10	X11	Y11	Z11	X12	Y12	Z12	X13	Y13	Z13	X14	Y14	Z14	X15	Y15	Z15	X16	Y16	Z16	X17	Y17	Z17	X18	Y18	Z18	
0	0	-127.6	21.541	56.4261	-110.946	16.748	38.7326	-94.8048	17.7224	20.7446	-81.9403	17.1536	3.28363	-129.645	21.7161	-13.8835	-122.548	16.7543	-34.2392	-115.499	12.115	-61.0327	-149.911	22.7459	-23.3874	-149.676	19.2706	-46.9516	-150.999	13.7653	-72.3208	-169.452	22.1958	-19.917	-171.375	20.2192	-37.8171	-173.704	16.4892	-59.2542	-193.945	19.6878	-5.86974	-197.858	17.4313	-20.3711	-200.676	16.8793	-41.9687	-170.663	35.6039	22.1885	-173.624	41.3104	52.4182	-146.879	38.6851	37.8441	
1	0.00833333	-128.826	21.3364	53.5307	-109.735	18.0907	37.5775	-99.3184	17.0302	18.9024	-82.4162	16.1314	2.92068	-129.766	23.1107	-15.8437	-123.257	18.9015	-39.2222	-117.205	13.3203	-62.7459	-149.012	24.2537	-26.1754	-148.782	21.6773	-45.0971	-151.14	15.5053	-73.1779	-173.863	24.3753	-18.2993	-170.43	21.1787	-38.7738	-173.095	17.922	-64.9327	-190.842	20.0936	-2.84551	-199.774	18.3745	-25.4468	-203.713	19.7105	-40.2383	-173.397	35.574	25.4426	-172.186	42.3668	49.517	-145.891	38.0665	36.0209	
2	0.0166667	-128.844	21.135	54.8575	-111.452	17.5331	39.3358	-94.5851	17.8696	16.5017	-84.8814	15.7247	5.81883	-123.597	23.0171	-18.7308	-123.037	19.7757	-37.4001	-113.02	15.2457	-58.3658	-150.941	26.2898	-23.5258	-148.338	22.4055	-46.7666	-147.264	17.2042	-71.8467	-168.189	25.0307	-16.7917	-170.298	21.5196	-43.7944	-173.343	18.3204	-64.4472	-192.033	22.0392	-4.58949	-198.896	19.0128	-23.6249	-201.781	18.7337	-41.0163	-173.463	37.0994	24.3061	-171.351	41.2394	49.0351	-147.43	38.8393	38.2872	
3	0.025	-124.473	22.5847	50.3381	-110.775	18.0203	35.7045	-95.8638	17.4351	17.6031	-83.2672	15.3929	7.21778	-125.58	23.756	-19.0381	-117.25	20.3372	-40.384	-117.432	16.1916	-58.8439	-147.923	26.4601	-22.5568	-147.731	22.6231	-49.4639	-149.18	17.4038	-73.3118	-167.122	25.621	-20.1222	-170.47	22.2272	-43.0664	-170.284	19.4498	-60.1981	-186.635	21.7897	-4.6822	-193.666	21.1419	-24.7635	-201.273	22.4492	-41.2179	-170.663	36.2674	21.0871	-174.134	42.3637	46.8821	-144.73	39.3564	34.9402	
4	0.0333333	-128.506	21.6746	52.8537	-108.402	18.4413	34.1084	-92.5864	17.192	19.642	-79.3029	15.4527	6.13769	-122.486	24.6389	-15.5512	-118.723	21.5595	-36.1148	-111.775	16.9832	-58.1089	-144.323	27.504	-28.4427	-144.056	21.9683	-51.7541	-145.82	18.6147	-72.1608	-171.113	25.7138	-19.6723	-168.465	23.2029	-44.9428	-171.78	18.7372	-65.0933	-191.646	22.8558	-6.61669	-191.459	21.5564	-24.2135	-200.548	23.2779	-42.2338	-170.356	38.8303	21.1252	-167.274	43.2875	45.6867	-144.619	38.9505	34.4595	
5	0.0416667	-126.889	22.378	48.4981	-109.174	18.4536	34.3438	-93.8927	17.8357	15.0923	-78.3033	15.3084	4.74129	-121.703	24.3487	-14.7039	-120.647	20.8153	-41.1088	-112.356	16.4293	-58.7816	-148.36	27.015	-27.9746	-144.794	23.4597	-49.5983	-148.897	18.1088	-73.869	-171.394	26.1178	-20.0355	-171.491	23.2429	-44.9266	-173.154	19.5309	-62.4321	-188.871	24.2393	-6.83297	-191.155	22.1594	-22.6279	-200.389	21.1892	-41.934	-167.006	38.568	24.6041	-169.465	43.014	47.1301	-141.07	38.8481	35.7691	
6	0.05	-124.26	22.9621	48.7595	-106.352	18.5908	33.5469	-95.6457	15.3777	18.2054	-81.085	15.071	4.49159	-124.395	24.6023	-20.9911	-117.441	20.3721	-37.0222	-114.03	16.0633	-60.0137	-148.884	27.2821	-29.1247	-144.38	23.8976	-47.8374	-146.204	18.9931	-76.2739	-166.353	26.3377	-18.4034	-169.903	23.6562	-42.6131	-169.125	20.248	-67.0245	-190.852	23.9426	-7.2848	-194.609	21.738	-28.2668	-199.882	21.2968	-44.608	-166.008	36.5717	24.5587	-170.875	43.5648	48.0353	-144.034	41.1269	36.0238	
7	0.0583333	-124.924	23.3923	52.6485	-107.423	18.1612	35.537	-91.086	18.4513	15.0435	-77.7064	16.2217	5.28006	-122.946	25.8	-20.2224	-115.38	20.1804	-42.3363	-113.999	16.6198	-61.2189	-146.7	27.1611	-29.5347	-144.986	23.5625	-49.4179	-142.162	17.736	-78.939	-165.865	27.0322	-20.5458	-171.95	23.7731	-43.8831	-171.311	20.0647	-64.0605	-190.588	25.1413	-10.611	-192.351	22.1601	-25.8597	-199.253	20.1256	-48.4019	-171.124	38.011	23.1599	-170.385	43.7271	45.3518	-140.739	42.1038	34.5877	
8	0.0666667	-124.719	22.2117	49.0942	-107.826	17.8084	31.8519	-95.3766	16.9724	14.9806	-78.6572	16.6201	0.0729231	-122.867	25.5469	-18.2722	-115.954	20.6043	-43.8022	-107.779	13.619	-65.021	-145.857	27.5037	-26.6386	-146.857	23.1067	-53.6078	-144.415	18.0342	-76.9693	-167.53	27.1834	-22.7154	-170.83	23.9945	-43.9368	-167.64	19.267	-67.2063	-189.646	24.5676	-6.46436	-191.795	22.4813	-25.2924	-199.338	20.964	-46.7086	-167.971	36.9245	21.2364	-171.009	43.0375	47.7708	-142.623	39.5995	34.9737	
9	0.075	-126.792	21.3724	49.8684	-104.117	17.3112	33.0533	-90.9944	16.8419	17.877	-81.5082	14.0098	2.19513	-121.254	24.2206	-19.6906	-118.801	21.129	-40.1096	-111.392	15.3067	-63.6441	-143.809	26.9163	-29.3439	-142.308	23.1917	-51.6559	-143.357	17.6	-75.945	-163.886	26.8311	-24.3697	-171.207	24.237	-42.8058	-169.045	18.7274	-65.785	-184.701	23.9451	-7.02975	-193.449	21.9831	-28.2081	-197.188	19.8428	-46.7073	-170.239	37.4709	21.0143	-169.627	43.2772	43.1562	-141.237	39.4588	35.2528	
